<svg width="636" height="80" viewBox="0 0 636 80" fill="none" xmlns="http://www.w3.org/2000/svg">
<path d="M267.341 57.6759V78.8805H222.293V1.16794H244.631V57.6759H267.341Z" fill="#41E607"/>
<path d="M365.122 79.8906C333.693 79.8906 334.985 51.2193 334.985 51.2193V1.16287H357.317V51.2193C357.317 53.3115 357.374 59.8139 365.122 59.8139C372.871 59.8139 372.928 53.3115 372.928 51.2193V1.16287H395.26V51.2193C395.26 51.2193 396.552 79.8906 365.122 79.8906Z" fill="#41E607"/>
<path d="M151.968 1.16794V78.8805H173.02L197.987 39.6013V78.8805H220.043V1.16794H196.972L174.024 37.2665V1.16794H151.968Z" fill="#41E607"/>
<path d="M397.324 1.16794V78.8805H418.376L443.342 39.6013V78.8805H465.404V1.16794H442.327L419.386 37.2552V1.16794H397.324Z" fill="#41E607"/>
<path d="M314.546 1.16231H294.024L268.144 78.8749H290.161L293.121 69.3949H315.448L318.409 78.8749H340.426L314.546 1.16231ZM299.19 49.9724L304.288 33.646L309.386 49.9724H299.19Z" fill="#41E607"/>
<path d="M490.222 50.4128C493.342 55.0553 498.489 58.091 504.314 58.091C513.834 58.091 521.552 49.9915 521.552 40C521.552 30.0085 513.834 21.909 504.314 21.909C498.248 21.909 492.917 25.2008 489.845 30.172H465.405C469.785 12.8333 485.484 0 504.184 0C526.275 0 544.184 17.9083 544.184 40C544.184 62.0917 526.276 80 504.184 80C485.696 80 470.145 67.4538 465.562 50.4128H490.222Z" fill="#41E607"/>
<path d="M124.832 1.16794L111.999 21.4307H127.831V29.5347H106.867L94.0345 49.7975H127.831V58.6121H88.452L75.6158 78.8805H149.893V1.16794H124.832Z" fill="#41E607"/>
<path d="M122.163 1.16513L72.9472 78.8777H49.0977V38.6679L23.6409 78.8777H0V1.16513H22.0562V43.1908L47.8288 1.16513H70.8719V43.1965L96.5204 1.16513H122.163Z" fill="#41E607"/>
<path d="M606.055 1.16794V78.8805H583.999V50.7788H568.107V78.8805H546.045V1.16794H568.107V28.5027H583.999V1.16794H606.055Z" fill="#41E607"/>
<rect width="28" height="28" transform="translate(608 1)" fill="#42FF00"/>
<rect x="621" y="14" width="2" height="2" fill="#1B1B23"/>
<rect x="630" y="14" width="2" height="8" transform="rotate(90 630 14)" fill="#1B1B23"/>
<rect x="621" y="5" width="2" height="10" fill="#1B1B23"/>
</svg>
