<?xml version="1.0" encoding="UTF-8" standalone="no"?>
<!-- Created with Inkscape (http://www.inkscape.org/) -->

<svg
   xmlns:dc="http://purl.org/dc/elements/1.1/"
   xmlns:cc="http://creativecommons.org/ns#"
   xmlns:rdf="http://www.w3.org/1999/02/22-rdf-syntax-ns#"
   xmlns:svg="http://www.w3.org/2000/svg"
   xmlns="http://www.w3.org/2000/svg"
   xmlns:sodipodi="http://sodipodi.sourceforge.net/DTD/sodipodi-0.dtd"
   xmlns:inkscape="http://www.inkscape.org/namespaces/inkscape"
   width="155.05875mm"
   height="129.61179mm"
   viewBox="0 0 155.05875 129.61179"
   version="1.1"
   id="svg8"
   inkscape:version="0.92.4 (5da689c313, 2019-01-14)"
   sodipodi:docname="drawing.svg">
  <defs
     id="defs2">
    <linearGradient
       id="linearGradient-1"
       y2="0.48307201"
       x2="0.11651685"
       y1="0.50893492"
       x1="1">
      <stop
         id="stop827"
         offset="0%"
         stop-color="#8F32FF" />
      <stop
         id="stop829"
         offset="100%"
         stop-color="#06CC8E" />
    </linearGradient>
  </defs>
  <sodipodi:namedview
     id="base"
     pagecolor="#ffffff"
     bordercolor="#666666"
     borderopacity="1.0"
     inkscape:pageopacity="0.0"
     inkscape:pageshadow="2"
     inkscape:zoom="0.81449963"
     inkscape:cx="158.16581"
     inkscape:cy="99.793705"
     inkscape:document-units="mm"
     inkscape:current-layer="layer1"
     showgrid="false"
     inkscape:window-width="1920"
     inkscape:window-height="991"
     inkscape:window-x="2391"
     inkscape:window-y="-9"
     inkscape:window-maximized="1" />
  <metadata
     id="metadata5">
    <rdf:RDF>
      <cc:Work
         rdf:about="">
        <dc:format>image/svg+xml</dc:format>
        <dc:type
           rdf:resource="http://purl.org/dc/dcmitype/StillImage" />
        <dc:title></dc:title>
      </cc:Work>
    </rdf:RDF>
  </metadata>
  <g
     inkscape:label="Layer 1"
     inkscape:groupmode="layer"
     id="layer1"
     transform="translate(-28.303962,-28.842919)">
    <g
       id="layer1-5"
       inkscape:label="Layer 1"
       transform="translate(-16.870615,8.0092519)">
      <g
         transform="matrix(0.26458333,0,0,0.26458333,-4.8187538,20.833667)"
         id="g4532">
        <path
           style="fill:#04d49c;fill-rule:evenodd;stroke:none"
           inkscape:connector-curvature="0"
           d="m 687.405,2.103 c -1.722,1.901 -1.934,4.104 -2.211,23 L 684.888,46 h -18.872 -18.871 l -2.072,2.635 c -1.91,2.427 -2.073,3.953 -2.073,19.389 0,22.989 -1.682,21.386 22.854,21.786 l 19.035,0.31 0.305,21.03 c 0.393,27.042 -1.717,24.85 23.917,24.85 17.556,0 19.03,-0.141 20.889,-2 1.873,-1.873 2,-3.333 2,-22.941 v -20.94 l 19.398,-0.31 c 17.415,-0.277 19.612,-0.504 21.5,-2.214 C 774.888,85.791 775,84.716 775,67.402 775,49.637 774.936,49.069 772.777,47.557 770.953,46.278 767.107,46 751.277,46 H 732 V 25.223 C 732,8.036 731.731,4.061 730.443,2.223 728.924,0.053 728.413,0 709.098,0 690.259,0 689.219,0.101 687.405,2.103 M 383,59.117 c -91.039,9.118 -167.353,76.098 -188.538,165.479 -7.173,30.26 -7.353,66.599 -0.485,97.404 6.885,30.877 22.964,63.896 43.238,88.788 35.213,43.236 86.709,71.439 142.785,78.199 6.547,0.789 30.17,1.037 76,0.796 73.243,-0.385 68.99,-0.042 85,-6.841 21.516,-9.136 41.236,-28.76 50.099,-49.856 7.53,-17.921 9.446,-40.274 5.017,-58.526 -8.19,-33.757 -34.073,-60.365 -67.918,-69.819 -7.374,-2.06 -10.242,-2.173 -68.198,-2.696 -59.924,-0.54 -60.539,-0.566 -64.616,-2.747 -10.456,-5.594 -15.398,-13.394 -15.362,-24.244 0.036,-10.642 5.229,-19.392 14.478,-24.392 3.929,-2.124 5.009,-2.172 61,-2.721 61.449,-0.603 60.165,-0.495 74.447,-6.264 11.712,-4.73 25.947,-16.994 32.291,-27.82 3.48,-5.938 7.371,-17.82 8.233,-25.139 l 0.681,-5.781 -86.826,0.296 c -86.403,0.294 -86.864,0.307 -94.734,2.531 -16.072,4.542 -29.941,11.66 -41.428,21.262 -22.973,19.202 -35.572,49.051 -32.19,76.264 5.326,42.864 39.481,75.103 86.493,81.642 4.594,0.639 27.485,1.068 56.991,1.068 56.086,0 55.974,-0.013 64.558,7.705 7.082,6.366 9.986,12.844 9.974,22.241 -0.015,12.082 -5.726,21.665 -16.267,27.297 L 513.5,425.5 H 449 c -63.855,0 -64.604,-0.023 -74.881,-2.324 -60.672,-13.585 -105.171,-58.144 -118.328,-118.488 -1.895,-8.692 -2.219,-13.198 -2.207,-30.688 0.012,-18.891 0.232,-21.442 2.809,-32.5 6.633,-28.467 19.109,-51.61 38.891,-72.149 19.287,-20.025 41.602,-33.68 66.964,-40.976 19.919,-5.731 17.83,-5.608 107.252,-6.305 l 83,-0.647 6.5,-2.301 c 16.125,-5.708 29.702,-17.538 36.862,-32.122 4.069,-8.286 7.086,-19.196 7.121,-25.75 L 603,58 497.25,58.133 C 439.087,58.206 387.675,58.649 383,59.117"
           id="path4520" />
      </g>
    </g>
  </g>
</svg>
