<?xml version="1.0" encoding="UTF-8"?>
<svg width="250px" height="46px" viewBox="0 0 250 46" version="1.1" xmlns="http://www.w3.org/2000/svg" xmlns:xlink="http://www.w3.org/1999/xlink">
    <title>powered by goplus</title>
    <defs>
        <linearGradient x1="100%" y1="50.893488%" x2="11.6516848%" y2="48.3072%" id="linearGradient-1">
            <stop stop-color="#8F32FF" offset="0%"></stop>
            <stop stop-color="#06CC8E" offset="100%"></stop>
        </linearGradient>
    </defs>
    <g id="页面-1" stroke="none" stroke-width="1" fill="none" fill-rule="evenodd">
        <g id="powered-by-goplus" fill-rule="nonzero">
            <rect id="矩形" fill="url(#linearGradient-1)" x="0" y="0" width="250" height="46" rx="8"></rect>
            <g id="Powered-By" transform="translate(51.392000, 11.133333)" fill="#FFFFFF" font-family="Aeonik-Bold, Aeonik" font-size="16" font-weight="bold">
                <text>
                    <tspan x="7.10542736e-15" y="16">Powered By</tspan>
                </text>
            </g>
            <g id="gopluslabs.io" opacity="0.67843192" transform="translate(148.000000, 12.000000)" fill="#FFFFFF" font-family="Aeonik-Regular, Aeonik" font-size="14" font-weight="normal">
                <text>
                    <tspan x="0" y="14">gopluslabs.io</tspan>
                </text>
            </g>
            <g id="圆角矩形-1-拷贝-4" transform="translate(17.000000, 10.000000)" fill="#FFFFFF">
                <path d="M27.7141838,4.60029397 L26.026851,4.60029397 L26.026851,6.67681134 C26.026851,6.85530351 25.8988867,7 25.7410348,7 L24.2172168,7 C24.0596784,6.9994996 23.9322028,6.85494957 23.9322034,6.67681134 L23.9322034,4.60029397 L22.2863515,4.60029397 C22.2104803,4.60053518 22.1376434,4.56662346 22.0839189,4.50604441 C22.0301944,4.44546536 22,4.36320013 22,4.27740792 L22,2.71593464 C22,2.53744247 22.1279643,2.39274598 22.2858162,2.39274598 L23.9322034,2.39274598 L23.9322034,0.323188656 C23.9322033,0.1448146 24.0600046,0.000167016906 24.217752,0 L25.74157,0 C25.899422,0 26.0273863,0.14469649 26.0273863,0.323188656 L26.0273863,2.39274598 L27.714719,2.39274598 C27.8723619,2.39307979 28,2.53767856 28,2.71593464 L28,4.27740792 C28,4.36309507 27.9698788,4.4452683 27.9162702,4.50582989 C27.8626615,4.56639148 27.7899623,4.60037428 27.7141838,4.60029397 Z M16.9870078,6.08084003 L16.9870078,6.08084003 L10.4413369,6.08084003 C6.367436,6.08084003 3.06456412,9.40200098 3.06456412,13.4988597 C3.06456412,17.5957184 6.36771936,20.9171644 10.4416203,20.9171644 L15.2468795,20.9171644 C15.7804627,20.9245928 16.2767041,20.642461 16.54565,20.1787649 C16.8145958,19.7150687 16.8145958,19.1416184 16.54565,18.6779223 C16.2767041,18.2142261 15.7804627,17.9320943 15.2468795,17.9395227 L11.0128788,17.9395227 C8.31753588,17.9395227 6.12997832,15.9639308 6.12997832,13.5125434 C6.12997832,11.0611561 8.31753588,9.05335035 11.0128788,9.05335035 L14.3282186,9.06389824 C14.3282186,9.06190269 14.3282186,9.05990715 14.3282186,9.0579116 L18.4406568,9.0579116 C18.4406568,10.7897616 16.9204177,12.1937717 15.0451255,12.1937717 C14.982219,12.1937717 14.9232796,12.1920613 14.8668905,12.1889254 L14.8668905,12.1937717 L10.5195449,12.1937717 C9.78823576,12.1937717 9.19539253,12.7902047 9.19539253,13.5259421 C9.19539253,14.2616795 9.78823576,14.8581125 10.5195449,14.8581125 L15.2468795,14.8581125 C16.8700915,14.8581125 18.3700014,15.7293294 19.1816074,17.1435844 C19.9932134,18.5578393 19.9932134,20.3002732 19.1816074,21.7145282 C18.3700014,23.1287831 16.8700915,24 15.2468795,24 L10.4416203,24 C4.67547924,24.0002851 0,19.2990606 0,13.5 C0,7.7009394 4.67547924,3 10.4416203,3 L20,3 C19.999304,4.68194021 18.6585934,6.05284153 16.9870078,6.08084003 Z" id="形状"></path>
            </g>
        </g>
    </g>
</svg>