<?xml version="1.0" encoding="UTF-8"?> <svg xmlns="http://www.w3.org/2000/svg" width="347" height="287" viewBox="0 0 347 287" fill="none"><path d="M103.085 195.653L1.28806 14.8135C-3.26086 6.65773 5.05267 -2.7528 13.5231 1.16825L107.477 43.3588C109.987 44.4567 112.654 44.4567 115.163 43.3588L211.475 0.85457C219.945 -2.90964 228.259 6.50089 223.553 14.6567L119.712 195.653C115.948 202.083 106.85 202.083 103.085 195.653Z" fill="black"></path><path d="M243.49 90.7219L345.292 271.561C349.84 279.717 341.527 289.127 333.056 285.206L239.098 243.016C236.588 241.918 233.921 241.918 231.412 243.016L135.257 285.363C126.786 289.127 118.473 279.717 123.179 271.561L227.019 90.5651C230.784 84.1346 239.882 84.1346 243.647 90.5651L243.49 90.7219Z" fill="black"></path></svg> 